<svg id="Layer_1" data-name="Layer 1" xmlns="http://www.w3.org/2000/svg" viewBox="0 0 527.12 51.92"><defs><style>.cls-1{fill:#1d1d1b;}</style></defs><title>Octane_Plain_blk</title><path class="cls-1" d="M452.2 45.65c-3 0-14.56-.5-11.29-8.06h43.85c4.8-2.85 6-10.52 2.26-14.8-3.76-4.54-8.22-6.08-24.18-6.08h-11.68c-13.36 0-36.7 5.07-38.92 23a8.06 8.06 0 0 0 2.06 6h-16.37l10.12-20c4.8-9.86-3.71-9.12-5.4-9.12-8.43 0-18.38-.85-24.42 2.27l-18.76 7.74 5.11-9.88h-27.1l-14.4 28.95h-19.22l14.4-28.93h-44.62c-15.43 0-33.6 4.41-38.78 17.9a16.17 16.17 0 0 0-.55 11h-41.13l11.67-23.17 10.15-.04c4.28 0 30.18 1.39 33.75-5.71l-41.13.14 7.87-16h-5.85c-10.12 11.89-30.16 16.51-40.59 15.9l-4 5.64h12.65l-9.9 18.92a9.26 9.26 0 0 0-1 4.38h-38.48c-8.3 0-13.64-2.34-11-7.66L125.57 22h24.35c-3.66 3.11-3 10.14 3.24 10.6 4.49.33 7.66-1.43 9.11-5.19 1.9-4.94-.77-11.19-11.61-10.54H89.21C91.23 5 84.53.22 60.18.14 36.92.07 17.74-2.92 3.93 22.43c-10.75 22.72 1.44 29.4 25.82 29.36s46.36 3.73 57.13-26.57q.61-1.73 1.1-3.32h13.26c-5.26 3-9.49 7.74-12.37 15.22C85.48 46 93 51.8 93 51.83h53c7.22 0 17.31 0 21.26-4.22a8.09 8.09 0 0 0 3.36 4.17h49.87c5.59 0 9.76.37 15.32-3.11a13.32 13.32 0 0 0 2.74 3.09H265a23.89 23.89 0 0 0 10-3.7s-.23 3 2.08 3.73h32a23.72 23.72 0 0 0 12.65-3.43L320 51.78h17.35c2.39 0 9.32-.55 18.69-16.54L379 24.86 371.22 42c-3 6.1 1.21 9.75 1.22 9.76h29.18c3.79 0 11.48.29 17.06-2.15a33.18 33.18 0 0 0 3.5 2.15h83.9c5.06 0 18.17.34 21-6.14H452.2zm-4.12-23.22h18.72c.05 0-2.11 4.87-4 9.12h-19c1.94-4.13 4.28-9.06 4.28-9.12zM63 13.8C60.34 19 52.32 35.66 49.61 40.5s-9.7 5.16-9.7 5.16H27.06s-6.87.86-2.46-8.1c2.71-5.5 10.4-20.73 13-25.36a10.87 10.87 0 0 1 7.24-5.47 2.28 2.28 0 0 1 .31-.09h16.6c1.56.69 3.67 2.5 1.25 7.16zM283.87 29l-8.14 16.61c-11.8 0-15.57-2.21-12.58-8l1.21-2.41 6.41-12.76h16.58z"/></svg>
